<svg version="1.2" xmlns="http://www.w3.org/2000/svg" viewBox="0 0 572 572" width="50" height="50"><defs><linearGradient id="P" gradientUnits="userSpaceOnUse"/><linearGradient id="g1" x1="447.9" y1="92.5" x2="228.2" y2="513.3" href="#P"><stop stop-color="#00ffa3"/><stop offset="1" stop-color="#dc1fff"/></linearGradient><linearGradient id="g2" x1="351.8" y1="42.4" x2="132.2" y2="463.1" href="#P"><stop stop-color="#00ffa3"/><stop offset="1" stop-color="#dc1fff"/></linearGradient><linearGradient id="g3" x1="399.5" y1="67.3" x2="179.9" y2="488.1" href="#P"><stop stop-color="#00ffa3"/><stop offset="1" stop-color="#dc1fff"/></linearGradient></defs><style>.a{fill:url(#g1)}.b{fill:url(#g2)}.c{fill:url(#g3)}</style><path class="a" d="m151.6 367.9c2.4-2.4 5.7-3.8 9.2-3.8h317.4c5.8 0 8.7 7 4.6 11.1l-62.7 62.7c-2.4 2.4-5.7 3.8-9.2 3.8h-317.4c-5.8 0-8.7-7-4.6-11.1z"/><path class="b" d="m151.6 133.8c2.5-2.4 5.8-3.8 9.2-3.8h317.4c5.8 0 8.7 7 4.6 11.1l-62.7 62.7c-2.4 2.4-5.7 3.8-9.2 3.8h-317.4c-5.8 0-8.7-7-4.6-11.1z"/><path class="c" d="m482.8 312.8c4.1 4.1 1.2 11.1-4.6 11.1h-317.4c-3.5 0-6.8-1.4-9.2-3.8l-62.7-62.7c-4.1-4.1-1.2-11.1 4.6-11.1h317.4c3.5 0 6.8 1.4 9.2 3.8z"/></svg>