<svg version="1.2" xmlns="http://www.w3.org/2000/svg" viewBox="0 0 2605 2606" width="70" height="70"><style>.a{fill:#2775ca}.b{fill:#fff}</style><path class="a" d="m303 1303c0-554.2 445.8-1000 1000-1000 554.2 0 1000 445.8 1000 1000 0 554.2-445.8 1000-1000 1000-554.2 0-1000-445.8-1000-1000z"/><path class="b" d="m1369.7 1682.2v100c-4.2 20.8-16.7 33.3-33.4 33.3h-62.5c-20.8-4.2-33.3-16.7-33.3-33.3v-100c-137.5-20.9-204.2-95.9-220.8-200v-4.2c0-16.7 12.5-29.2 29.1-29.2h70.9c12.5 0 25 8.4 29.1 25 12.5 62.5 50 108.4 158.4 108.4 79.1 0 137.5-45.9 137.5-112.5 0-66.7-37.5-91.7-154.2-112.5-175-20.9-258.3-75-258.3-212.5 0-104.2 79.1-187.5 204.1-204.2v-95.8c4.2-20.9 16.7-33.4 33.4-33.4h62.5c20.8 4.2 33.3 16.7 33.3 33.4v100c95.8 8.3 170.8 79.1 187.5 170.8v4.2c0 16.6-12.5 29.1-29.2 29.1h-66.6c-12.5 0-25-8.3-29.2-20.8-20.8-62.5-62.5-87.5-137.5-87.5-83.3 0-125 37.5-125 95.8 0 58.4 25 91.7 150 108.4 175 20.8 262.5 70.8 262.5 216.6 0 112.5-83.3 200-208.3 220.9z"/><path class="b" d="m1115.5 1936.3v58.4c0 8.3 0 12.5-4.2 16.6-4.1 16.7-20.8 25-37.5 16.7-233.3-75-412.5-254.2-487.5-487.5-125-395.8 91.7-816.7 487.5-941.7 4.2-4.1 12.5-4.1 16.7-4.1 16.7 4.1 25 16.6 25 33.3v58.3c0 20.9-8.3 33.4-25 41.7-170.8 62.5-308.3 195.8-370.8 370.8-120.9 320.9 45.8 683.4 370.8 800 12.5 8.4 25 25 25 37.5zm904.2-845.8c125 395.8-91.7 816.7-487.5 941.7-4.2 4.1-12.5 4.1-16.7 4.1-16.7-4.1-25-16.6-25-33.3v-58.3c0-20.9 8.3-33.4 25-41.7 170.8-62.5 308.3-195.8 370.8-370.8 120.9-320.9-45.8-683.4-370.8-800-12.5-8.4-25-25-25-41.7v-58.3c0-8.4 0-12.5 4.2-16.7 4.1-16.7 20.8-25 37.5-16.7 229.1 75 412.5 254.2 487.5 491.7z"/></svg>